<svg id="Layer_1" data-name="Layer 1" xmlns="http://www.w3.org/2000/svg" viewBox="0 0 99.574 103.779"><defs><style>.cls-1{fill:#17181b;}.cls-2{fill:#c43d2a;}</style></defs><path class="cls-1" d="M-555.709,164.6c16.871-3.317,30.22-11.775,39.688-26.086,4.968-7.509,9.092-15.473,10.749-24.437,2.291-12.389-1.887-21.85-12.521-28.644a43.165,43.165,0,0,0-14.365-5.879c-.412-.088-.814-.229-1.329-.377,2.36-.617,5.311-.434,9.756.754,7.35,1.964,13.717,5.536,18.308,11.773,5.183,7.041,6.18,15.04,4.476,23.318-5.282,25.658-21,41.444-46.171,48.062-2.117.556-4.277.956-6.428,1.374A16.508,16.508,0,0,1-555.709,164.6Z" transform="translate(583.705 -69.952)"/><path class="cls-2" d="M-583.494,161.955a3.513,3.513,0,0,1,1.056.183A48.751,48.751,0,0,0-557.6,167.6a62.672,62.672,0,0,0,18.762-3.981c4.078-1.423,4.1-1.742,5.15,2.964.7,3.151.554,3.229-2.716,4.32-12.71,4.239-25.206,3.879-37.282-2.16-3.494-1.747-6.686-4.1-10.017-6.17Z" transform="translate(583.705 -69.952)"/><path class="cls-2" d="M-497.207,105.423c-1.369-3.241,1-5.038,3.739-6.713,1.585-.971,3.061-2.119,4.607-3.156,1.869-1.253,3.251-.666,3.557,1.518.4,2.841.726,5.69,1.134,8.529a2.335,2.335,0,0,1-1.858,2.806q-4.537,1.508-9.073,3.015c-1.415.473-2.039-.187-2.1-1.518C-497.25,108.588-497.207,107.267-497.207,105.423Z" transform="translate(583.705 -69.952)"/><path class="cls-2" d="M-499.717,125.483c.839-3.361,1.611-6.5,2.425-9.623a1.106,1.106,0,0,1,.663-.583c3.54-1.22,7.083-2.429,10.639-3.6,1.453-.48,2,0,1.62,1.568-.867,3.635-1.614,7.3-2.513,10.925-.127.513-.825,1.246-1.275,1.259C-491.9,125.527-495.646,125.483-499.717,125.483Z" transform="translate(583.705 -69.952)"/><path class="cls-2" d="M-497.7,142.66c-2.369-1.261-4.782-2.553-7.2-3.829-1.04-.548-.976-1.24-.457-2.161,1.314-2.329,2.521-4.718,3.852-7.036.3-.523.922-1.206,1.412-1.219,3.689-.1,7.381-.056,11.1-.056C-489.442,131.463-493.4,137.928-497.7,142.66Z" transform="translate(583.705 -69.952)"/><path class="cls-2" d="M-498.023,98.157c-1.344-2.968-2.675-5.767-3.85-8.629a2.176,2.176,0,0,1,.418-1.881c2.166-2.314,4.443-4.525,6.739-6.829,2.941,1.462,4.2,4.283,5.586,6.837,1.841,3.392,1.7,3.538-1.518,5.763C-492.94,95.005-495.337,96.44-498.023,98.157Z" transform="translate(583.705 -69.952)"/><path class="cls-2" d="M-512.757,157.771c-1.56-2.027-3.018-3.813-4.322-5.706a1.833,1.833,0,0,1,.164-1.726q3.78-4.24,7.754-8.306a1.946,1.946,0,0,1,1.769-.386c2.393,1.316,4.7,2.789,7.273,4.352C-503.786,150.633-508.22,154.048-512.757,157.771Z" transform="translate(583.705 -69.952)"/><path class="cls-2" d="M-504.179,86.389c-.43-.294-1.04-.7-1.64-1.126-1.64-1.158-2.8-2.826-4.881-3.571-2.162-.774-2.164-1.479-1.078-3.638a29.914,29.914,0,0,1,2.594-4.867c.432-.564,1.932-.658,2.828-.453,2.754.629,5.018,2.287,7.362,3.809,1.079.7,2.021,1.154,1.694,2.594a2.4,2.4,0,0,1-.531,1.153C-499.874,82.3-501.957,84.264-504.179,86.389Z" transform="translate(583.705 -69.952)"/><path class="cls-2" d="M-515.151,159.847c-3.575,2.16-6.917,4.217-10.3,6.2-1.072.631-2.262,1.059-3.379,1.617-.945.472-1.429.067-1.644-.82-.414-1.707-.875-3.41-1.136-5.142a2.045,2.045,0,0,1,.708-1.665c3.026-2,6.125-3.9,9.2-5.83.471-.3.933-.605,1.606-1.043C-518.5,155.331-516.952,157.414-515.151,159.847Z" transform="translate(583.705 -69.952)"/><path class="cls-2" d="M-519.785,69.952c2.354.317,4.706.652,7.063.943,1.268.157,1.692.7,1.018,1.879-1.017,1.786-1.951,3.626-3.076,5.34a2.209,2.209,0,0,1-1.787.88c-3.215-.687-6.385-1.59-9.59-2.33-1.1-.253-1.489-.822-1.322-1.854.617-3.8,1.139-4.764,4.458-4.617,1.067.047,2.137.008,3.206.008Z" transform="translate(583.705 -69.952)"/><path class="cls-2" d="M-563.027,85.664c3.192-1.91,6.37-3.844,9.581-5.72a49.717,49.717,0,0,1,6.32-3.456c4.795-1.93,9.679-3.646,14.564-5.342a11.741,11.741,0,0,1,3.243-.04,44.027,44.027,0,0,1-1.226,4.347c-.152.392-.938.671-1.474.76-3.3.552-6.656.872-9.923,1.585a64.623,64.623,0,0,0-9.489,2.744c-3.53,1.363-6.892,3.16-10.334,4.752a9.034,9.034,0,0,1-1.253.38Z" transform="translate(583.705 -69.952)"/><path class="cls-1" d="M-515.784,92.927c-4.185,4.48-8.31,9.017-12.571,13.423-3.484,3.6-7.166,7.012-10.671,10.594a6.062,6.062,0,0,0-1.32,2.677,2.818,2.818,0,0,1-2.675,2.427,2.621,2.621,0,0,1-2.88-1.942c-.4-1.4-.08-2.891,1.334-3.318,3.364-1.016,5.457-3.675,7.978-5.752,7.1-5.851,14.1-11.824,21.145-17.749Z" transform="translate(583.705 -69.952)"/><path class="cls-2" d="M-563.018,85.674c-.113.073-.225.146.051-.034-.31.121-.185.073-.06.024Z" transform="translate(583.705 -69.952)"/></svg>